<svg width="132" height="35" viewBox="0 0 132 35" fill="none" xmlns="http://www.w3.org/2000/svg">
<path d="M12.73 20.79V28.02C12.73 28.2972 12.6199 28.563 12.4239 28.7589C12.228 28.9549 11.9622 29.065 11.685 29.065C11.4079 29.065 11.1421 28.9549 10.9461 28.7589C10.7501 28.563 10.64 28.2972 10.64 28.02V20.8C10.931 21.0125 11.2798 21.1311 11.64 21.14C12.0326 21.1512 12.4173 21.0277 12.73 20.79ZM21.63 18.7C21.3648 18.7 21.1104 18.8054 20.9229 18.9929C20.7354 19.1804 20.63 19.4348 20.63 19.7V20.96C20.63 21.2372 20.7401 21.503 20.9361 21.6989C21.132 21.8949 21.3978 22.005 21.675 22.005C21.9522 22.005 22.218 21.8949 22.4139 21.6989C22.6099 21.503 22.72 21.2372 22.72 20.96V19.75C22.7278 19.6066 22.7046 19.4632 22.652 19.3296C22.5994 19.196 22.5187 19.0752 22.4152 18.9756C22.3118 18.876 22.1881 18.7998 22.0527 18.7522C21.9172 18.7047 21.773 18.6869 21.63 18.7ZM8.37 23.53C8.01017 23.5192 7.66183 23.4008 7.37 23.19V30.44C7.37 30.7185 7.48062 30.9856 7.67754 31.1825C7.87445 31.3794 8.14152 31.49 8.42 31.49C8.69848 31.49 8.96555 31.3794 9.16246 31.1825C9.35938 30.9856 9.47 30.7185 9.47 30.44V23.24C9.14345 23.4511 8.75816 23.5527 8.37 23.53ZM18.37 16.53C18.2345 16.5232 18.0991 16.5441 17.9719 16.5913C17.8448 16.6385 17.7286 16.7111 17.6303 16.8046C17.5321 16.8982 17.454 17.0107 17.4006 17.1354C17.3473 17.2601 17.3198 17.3944 17.32 17.53V23.1C17.32 23.3785 17.4306 23.6456 17.6275 23.8425C17.8245 24.0394 18.0915 24.15 18.37 24.15C18.6485 24.15 18.9156 24.0394 19.1125 23.8425C19.3094 23.6456 19.42 23.3785 19.42 23.1V17.6C19.428 17.4557 19.4046 17.3114 19.3514 17.177C19.2982 17.0426 19.2166 16.9213 19.112 16.8215C19.0074 16.7217 18.8825 16.6457 18.7458 16.5989C18.6091 16.552 18.4638 16.5353 18.32 16.55L18.37 16.53ZM15.05 18.67C14.6733 18.6674 14.3067 18.5487 14 18.33V25.6C14 25.8785 14.1106 26.1456 14.3075 26.3425C14.5045 26.5394 14.7715 26.65 15.05 26.65C15.3285 26.65 15.5955 26.5394 15.7925 26.3425C15.9894 26.1456 16.1 25.8785 16.1 25.6V18.34C15.7828 18.5763 15.3955 18.6995 15 18.69L15.05 18.67ZM6.1 24.24V3.93C6.09737 3.68243 5.99717 3.44591 5.82117 3.27178C5.64517 3.09765 5.40758 2.99999 5.16 3H4.94C4.69242 2.99999 4.45483 3.09765 4.27883 3.27178C4.10283 3.44591 4.00263 3.68243 4 3.93V24.24C4 24.4893 4.09904 24.7284 4.27532 24.9047C4.4516 25.081 4.6907 25.18 4.94 25.18H5.16C5.40931 25.18 5.6484 25.081 5.82468 24.9047C6.00097 24.7284 6.1 24.4893 6.1 24.24ZM8.48 22.76H8.26C8.0107 22.76 7.7716 22.661 7.59532 22.4847C7.41904 22.3084 7.32 22.0693 7.32 21.82V6.35C7.32264 6.10244 7.42283 5.8659 7.59883 5.69178C7.77483 5.51765 8.01242 5.41999 8.26 5.42H8.48C8.72758 5.41999 8.96517 5.51765 9.14117 5.69178C9.31717 5.8659 9.41737 6.10244 9.42 6.35V21.84C9.42 22.0893 9.32096 22.3284 9.14468 22.5047C8.9684 22.681 8.7293 22.78 8.48 22.78V22.76ZM11.79 20.38H11.56C11.3134 20.38 11.0768 20.282 10.9024 20.1076C10.728 19.9332 10.63 19.6967 10.63 19.45V8.75C10.6287 8.62703 10.6518 8.50502 10.6979 8.39103C10.744 8.27704 10.8123 8.17334 10.8988 8.08592C10.9853 7.9985 11.0883 7.9291 11.2018 7.88174C11.3153 7.83438 11.437 7.80999 11.56 7.81H11.79C12.0376 7.81264 12.2741 7.91283 12.4482 8.08883C12.6224 8.26483 12.72 8.50242 12.72 8.75V19.45C12.72 19.6967 12.622 19.9332 12.4476 20.1076C12.2732 20.282 12.0367 20.38 11.79 20.38ZM15.1 17.93H14.89C14.6424 17.93 14.4048 17.8324 14.2288 17.6582C14.0528 17.4841 13.9526 17.2476 13.95 17V11.24C13.9418 11.1116 13.96 10.9829 14.0036 10.8618C14.0471 10.7408 14.1151 10.6299 14.2032 10.5362C14.2913 10.4424 14.3977 10.3678 14.5159 10.3168C14.634 10.2659 14.7613 10.2397 14.89 10.24H15.11C15.3593 10.24 15.5984 10.339 15.7747 10.5153C15.951 10.6916 16.05 10.9307 16.05 11.18V16.98C16.0513 17.1043 16.028 17.2276 15.9813 17.3428C15.9347 17.458 15.8657 17.5628 15.7782 17.6512C15.6908 17.7395 15.5868 17.8096 15.472 17.8575C15.3573 17.9054 15.2343 17.93 15.11 17.93H15.1ZM18.42 15.78H18.2C17.9507 15.78 17.7116 15.681 17.5353 15.5047C17.359 15.3284 17.26 15.0893 17.26 14.84V13.35C17.2626 13.1024 17.3628 12.8659 17.5388 12.6918C17.7148 12.5176 17.9524 12.42 18.2 12.42H18.42C18.6676 12.42 18.9052 12.5176 19.0812 12.6918C19.2572 12.8659 19.3574 13.1024 19.36 13.35V14.84C19.36 15.0876 19.2624 15.3252 19.0882 15.5012C18.9141 15.6772 18.6776 15.7774 18.43 15.78H18.42Z" fill="white"/>
<path d="M27.2784 23V11.3636H29.0341V16.4205H34.8352V11.3636H36.5966V23H34.8352V17.9261H29.0341V23H27.2784ZM50.0614 17.1818C50.0614 18.4242 49.8341 19.4924 49.3795 20.3864C48.925 21.2765 48.3019 21.9621 47.5102 22.4432C46.7223 22.9205 45.8265 23.1591 44.8227 23.1591C43.8152 23.1591 42.9155 22.9205 42.1239 22.4432C41.336 21.9621 40.7148 21.2746 40.2602 20.3807C39.8057 19.4867 39.5784 18.4205 39.5784 17.1818C39.5784 15.9394 39.8057 14.8731 40.2602 13.983C40.7148 13.089 41.336 12.4034 42.1239 11.9261C42.9155 11.4451 43.8152 11.2045 44.8227 11.2045C45.8265 11.2045 46.7223 11.4451 47.5102 11.9261C48.3019 12.4034 48.925 13.089 49.3795 13.983C49.8341 14.8731 50.0614 15.9394 50.0614 17.1818ZM48.3227 17.1818C48.3227 16.2348 48.1693 15.4375 47.8625 14.7898C47.5595 14.1383 47.1428 13.6458 46.6125 13.3125C46.086 12.9754 45.4894 12.8068 44.8227 12.8068C44.1523 12.8068 43.5538 12.9754 43.0273 13.3125C42.5008 13.6458 42.0841 14.1383 41.7773 14.7898C41.4742 15.4375 41.3227 16.2348 41.3227 17.1818C41.3227 18.1288 41.4742 18.928 41.7773 19.5795C42.0841 20.2273 42.5008 20.7197 43.0273 21.0568C43.5538 21.3902 44.1523 21.5568 44.8227 21.5568C45.4894 21.5568 46.086 21.3902 46.6125 21.0568C47.1428 20.7197 47.5595 20.2273 47.8625 19.5795C48.1693 18.928 48.3227 18.1288 48.3227 17.1818ZM53.0503 11.3636H55.181L58.8855 20.4091H59.0219L62.7264 11.3636H64.8571V23H63.1866V14.5795H63.0787L59.6469 22.983H58.2605L54.8287 14.5739H54.7207V23H53.0503V11.3636ZM68.2097 23V11.3636H75.5051V12.875H69.9653V16.4205H75.1244V17.9261H69.9653V21.4886H75.5733V23H68.2097ZM79.0537 23V11.3636H82.8321C83.5366 11.3636 84.1313 11.4886 84.6162 11.7386C85.101 11.9886 85.4685 12.339 85.7185 12.7898C85.9723 13.2405 86.0991 13.7652 86.0991 14.3636C86.0991 14.8333 86.0234 15.25 85.8719 15.6136C85.7204 15.9773 85.5082 16.2784 85.2355 16.517C84.9666 16.7519 84.6503 16.9148 84.2866 17.0057V17.0739C84.6882 17.1042 85.0613 17.2443 85.406 17.4943C85.7507 17.7405 86.0272 18.0758 86.2355 18.5C86.4476 18.9242 86.5537 19.4186 86.5537 19.983C86.5537 20.5777 86.4249 21.1023 86.1673 21.5568C85.9135 22.0076 85.5329 22.3617 85.0253 22.6193C84.5177 22.8731 83.8889 23 83.1389 23H79.0537ZM79.7639 22.3409H83.1389C84.0139 22.3409 84.6863 22.1212 85.156 21.6818C85.6295 21.2424 85.8662 20.6761 85.8662 19.983C85.8662 19.4943 85.7507 19.0568 85.5196 18.6705C85.2923 18.2841 84.976 17.9792 84.5707 17.7557C84.1654 17.5284 83.6957 17.4148 83.1616 17.4148H79.7639V22.3409ZM79.7639 16.767H83.0764C83.5726 16.767 83.9931 16.6591 84.3378 16.4432C84.6863 16.2273 84.9514 15.9375 85.1332 15.5739C85.3188 15.2102 85.4116 14.8068 85.4116 14.3636C85.4116 13.6439 85.1882 13.0739 84.7412 12.6534C84.2942 12.233 83.6579 12.0227 82.8321 12.0227H79.7639V16.767ZM89.7017 23H88.9517L93.1506 11.3636H93.9688L98.1676 23H97.4176L93.5881 12.2784H93.5312L89.7017 23ZM90.7642 18.6193H96.3551V19.2784H90.7642V18.6193ZM110.03 11.3636V23H109.337L101.916 12.6534H101.848V23H101.138V11.3636H101.837L109.257 21.7216H109.326V11.3636H110.03ZM114.188 23V11.3636H114.898V18.1193H114.978L121.114 11.3636H122.057L117.006 16.8693L122.012 23H121.126L116.552 17.3807L114.898 19.2102V23H114.188Z" fill="white"/>
</svg>
